<svg width="142" height="30" viewBox="0 0 142 30" fill="none" xmlns="http://www.w3.org/2000/svg">
<path d="M9.51015 6.64187C7.42835 6.64047 5.40418 7.32554 3.75113 8.59096V6.74689C3.72831 6.26481 3.52074 5.81004 3.1715 5.47694C2.82227 5.14385 2.35818 4.95801 1.87556 4.95801C1.39295 4.95801 0.928863 5.14385 0.579626 5.47694C0.23039 5.81004 0.0228206 6.26481 0 6.74689V23.9693C0.0228206 24.4514 0.23039 24.9062 0.579626 25.2393C0.928863 25.5724 1.39295 25.7582 1.87556 25.7582C2.35818 25.7582 2.82227 25.5724 3.1715 25.2393C3.52074 24.9062 3.72831 24.4514 3.75113 23.9693V16.1562C3.79167 14.6552 4.41642 13.2293 5.49242 12.1819C6.56842 11.1346 8.01069 10.5486 9.51225 10.5486C11.0138 10.5486 12.4561 11.1346 13.5321 12.1819C14.6081 13.2293 15.2328 14.6552 15.2734 16.1562V23.9231C15.2613 24.1769 15.301 24.4305 15.3898 24.6685C15.4786 24.9065 15.6148 25.124 15.7902 25.3078C15.9655 25.4917 16.1764 25.638 16.4099 25.738C16.6435 25.838 16.8949 25.8896 17.1489 25.8896C17.403 25.8896 17.6544 25.838 17.8879 25.738C18.1215 25.638 18.3323 25.4917 18.5077 25.3078C18.683 25.124 18.8192 24.9065 18.9081 24.6685C18.9969 24.4305 19.0365 24.1769 19.0245 23.9231V16.1562C19.0223 13.6335 18.0192 11.2148 16.2353 9.43102C14.4515 7.64722 12.0328 6.6441 9.51015 6.64187Z" fill="url(#paint0_linear_4129_106040)"/>
<path d="M31.6318 4.11053C31.3886 4.1072 31.147 4.15182 30.921 4.24185C30.695 4.33188 30.4889 4.46555 30.3145 4.63523C30.1402 4.80491 30.0009 5.00728 29.9048 5.23077C29.8086 5.45427 29.7575 5.69451 29.7542 5.93779V7.77765C28.0991 6.51483 26.0749 5.83079 23.993 5.83079C21.9112 5.83079 19.887 6.51483 18.2319 7.77765C19.3984 8.66287 20.3441 9.80616 20.9949 11.1179C21.6457 12.4297 21.9839 13.8744 21.9831 15.3387V24.4246C21.9831 24.7934 22.1296 25.147 22.3903 25.4078C22.6511 25.6685 23.0047 25.815 23.3735 25.815H31.6318C31.8751 25.8183 32.1167 25.7737 32.3427 25.6837C32.5687 25.5937 32.7748 25.46 32.9492 25.2903C33.1235 25.1206 33.2627 24.9183 33.3589 24.6948C33.455 24.4713 33.5062 24.231 33.5095 23.9877V5.92519C33.4996 5.43607 33.2965 4.97075 32.9448 4.63077C32.593 4.29079 32.121 4.10377 31.6318 4.11053Z" fill="url(#paint1_linear_4129_106040)"/>
<path d="M53.5729 22H51.2929L44.4329 11.62V22H42.1529V8.08H44.4329L51.2929 18.44V8.08H53.5729V22ZM66.547 10.98V22H64.267V20.7C63.907 21.1533 63.4336 21.5133 62.847 21.78C62.2736 22.0333 61.6603 22.16 61.007 22.16C60.1403 22.16 59.3603 21.98 58.667 21.62C57.987 21.26 57.447 20.7267 57.047 20.02C56.6603 19.3133 56.467 18.46 56.467 17.46V10.98H58.727V17.12C58.727 18.1067 58.9736 18.8667 59.467 19.4C59.9603 19.92 60.6336 20.18 61.487 20.18C62.3403 20.18 63.0136 19.92 63.507 19.4C64.0136 18.8667 64.267 18.1067 64.267 17.12V10.98H66.547ZM73.5553 22.18C72.6886 22.18 71.9086 22.0267 71.2153 21.72C70.5353 21.4 69.9953 20.9733 69.5953 20.44C69.1953 19.8933 68.9819 19.2867 68.9553 18.62H71.3153C71.3553 19.0867 71.5753 19.48 71.9753 19.8C72.3886 20.1067 72.9019 20.26 73.5153 20.26C74.1553 20.26 74.6486 20.14 74.9953 19.9C75.3553 19.6467 75.5353 19.3267 75.5353 18.94C75.5353 18.5267 75.3353 18.22 74.9353 18.02C74.5486 17.82 73.9286 17.6 73.0753 17.36C72.2486 17.1333 71.5753 16.9133 71.0553 16.7C70.5353 16.4867 70.0819 16.16 69.6953 15.72C69.3219 15.28 69.1353 14.7 69.1353 13.98C69.1353 13.3933 69.3086 12.86 69.6553 12.38C70.0019 11.8867 70.4953 11.5 71.1353 11.22C71.7886 10.94 72.5353 10.8 73.3753 10.8C74.6286 10.8 75.6353 11.12 76.3953 11.76C77.1686 12.3867 77.5819 13.2467 77.6353 14.34H75.3553C75.3153 13.8467 75.1153 13.4533 74.7553 13.16C74.3953 12.8667 73.9086 12.72 73.2953 12.72C72.6953 12.72 72.2353 12.8333 71.9153 13.06C71.5953 13.2867 71.4353 13.5867 71.4353 13.96C71.4353 14.2533 71.5419 14.5 71.7553 14.7C71.9686 14.9 72.2286 15.06 72.5353 15.18C72.8419 15.2867 73.2953 15.4267 73.8953 15.6C74.6953 15.8133 75.3486 16.0333 75.8553 16.26C76.3753 16.4733 76.8219 16.7933 77.1953 17.22C77.5686 17.6467 77.7619 18.2133 77.7753 18.92C77.7753 19.5467 77.6019 20.1067 77.2553 20.6C76.9086 21.0933 76.4153 21.48 75.7753 21.76C75.1486 22.04 74.4086 22.18 73.5553 22.18ZM79.4789 16.44C79.4789 15.3333 79.7055 14.3533 80.1589 13.5C80.6255 12.6467 81.2522 11.9867 82.0389 11.52C82.8389 11.04 83.7189 10.8 84.6789 10.8C85.5455 10.8 86.2989 10.9733 86.9389 11.32C87.5922 11.6533 88.1122 12.0733 88.4989 12.58V10.98H90.7989V22H88.4989V20.36C88.1122 20.88 87.5855 21.3133 86.9189 21.66C86.2522 22.0067 85.4922 22.18 84.6389 22.18C83.6922 22.18 82.8255 21.94 82.0389 21.46C81.2522 20.9667 80.6255 20.2867 80.1589 19.42C79.7055 18.54 79.4789 17.5467 79.4789 16.44ZM88.4989 16.48C88.4989 15.72 88.3389 15.06 88.0189 14.5C87.7122 13.94 87.3055 13.5133 86.7989 13.22C86.2922 12.9267 85.7455 12.78 85.1589 12.78C84.5722 12.78 84.0255 12.9267 83.5189 13.22C83.0122 13.5 82.5989 13.92 82.2789 14.48C81.9722 15.0267 81.8189 15.68 81.8189 16.44C81.8189 17.2 81.9722 17.8667 82.2789 18.44C82.5989 19.0133 83.0122 19.4533 83.5189 19.76C84.0389 20.0533 84.5855 20.2 85.1589 20.2C85.7455 20.2 86.2922 20.0533 86.7989 19.76C87.3055 19.4667 87.7122 19.04 88.0189 18.48C88.3389 17.9067 88.4989 17.24 88.4989 16.48ZM103.854 12.1C103.494 11.4067 102.994 10.8867 102.354 10.54C101.714 10.18 100.974 10 100.134 10C99.2135 10 98.3935 10.2067 97.6735 10.62C96.9535 11.0333 96.3869 11.62 95.9735 12.38C95.5735 13.14 95.3735 14.02 95.3735 15.02C95.3735 16.02 95.5735 16.9067 95.9735 17.68C96.3869 18.44 96.9535 19.0267 97.6735 19.44C98.3935 19.8533 99.2135 20.06 100.134 20.06C101.374 20.06 102.38 19.7133 103.154 19.02C103.927 18.3267 104.4 17.3867 104.574 16.2H99.3535V14.38H107.014V16.16C106.867 17.24 106.48 18.2333 105.854 19.14C105.24 20.0467 104.434 20.7733 103.434 21.32C102.447 21.8533 101.347 22.12 100.134 22.12C98.8269 22.12 97.6335 21.82 96.5535 21.22C95.4735 20.6067 94.6135 19.76 93.9735 18.68C93.3469 17.6 93.0335 16.38 93.0335 15.02C93.0335 13.66 93.3469 12.44 93.9735 11.36C94.6135 10.28 95.4735 9.44 96.5535 8.84C97.6469 8.22667 98.8402 7.92 100.134 7.92C101.614 7.92 102.927 8.28667 104.074 9.02C105.234 9.74 106.074 10.7667 106.594 12.1H103.854ZM108.502 16.44C108.502 15.3333 108.729 14.3533 109.182 13.5C109.649 12.6467 110.276 11.9867 111.062 11.52C111.862 11.04 112.742 10.8 113.702 10.8C114.569 10.8 115.322 10.9733 115.962 11.32C116.616 11.6533 117.136 12.0733 117.522 12.58V10.98H119.822V22H117.522V20.36C117.136 20.88 116.609 21.3133 115.942 21.66C115.276 22.0067 114.516 22.18 113.662 22.18C112.716 22.18 111.849 21.94 111.062 21.46C110.276 20.9667 109.649 20.2867 109.182 19.42C108.729 18.54 108.502 17.5467 108.502 16.44ZM117.522 16.48C117.522 15.72 117.362 15.06 117.042 14.5C116.736 13.94 116.329 13.5133 115.822 13.22C115.316 12.9267 114.769 12.78 114.182 12.78C113.596 12.78 113.049 12.9267 112.542 13.22C112.036 13.5 111.622 13.92 111.302 14.48C110.996 15.0267 110.842 15.68 110.842 16.44C110.842 17.2 110.996 17.8667 111.302 18.44C111.622 19.0133 112.036 19.4533 112.542 19.76C113.062 20.0533 113.609 20.2 114.182 20.2C114.769 20.2 115.316 20.0533 115.822 19.76C116.329 19.4667 116.736 19.04 117.042 18.48C117.362 17.9067 117.522 17.24 117.522 16.48ZM125.477 12.84V18.94C125.477 19.3533 125.57 19.6533 125.757 19.84C125.957 20.0133 126.29 20.1 126.757 20.1H128.157V22H126.357C125.33 22 124.544 21.76 123.997 21.28C123.45 20.8 123.177 20.02 123.177 18.94V12.84H121.877V10.98H123.177V8.24H125.477V10.98H128.157V12.84H125.477ZM140.358 16.22C140.358 16.6333 140.332 17.0067 140.278 17.34H131.858C131.925 18.22 132.252 18.9267 132.838 19.46C133.425 19.9933 134.145 20.26 134.998 20.26C136.225 20.26 137.092 19.7467 137.598 18.72H140.058C139.725 19.7333 139.118 20.5667 138.238 21.22C137.372 21.86 136.292 22.18 134.998 22.18C133.945 22.18 132.998 21.9467 132.158 21.48C131.332 21 130.678 20.3333 130.198 19.48C129.732 18.6133 129.498 17.6133 129.498 16.48C129.498 15.3467 129.725 14.3533 130.178 13.5C130.645 12.6333 131.292 11.9667 132.118 11.5C132.958 11.0333 133.918 10.8 134.998 10.8C136.038 10.8 136.965 11.0267 137.778 11.48C138.592 11.9333 139.225 12.5733 139.678 13.4C140.132 14.2133 140.358 15.1533 140.358 16.22ZM137.978 15.5C137.965 14.66 137.665 13.9867 137.078 13.48C136.492 12.9733 135.765 12.72 134.898 12.72C134.112 12.72 133.438 12.9733 132.878 13.48C132.318 13.9733 131.985 14.6467 131.878 15.5H137.978Z" fill="url(#paint2_linear_4129_106040)"/>
<defs>
<linearGradient id="paint0_linear_4129_106040" x1="1.6824e-08" y1="5.53543" x2="21.7439" y2="21.1303" gradientUnits="userSpaceOnUse">
<stop stop-color="#0A51AB"/>
<stop offset="1" stop-color="#0D6ADF"/>
</linearGradient>
<linearGradient id="paint1_linear_4129_106040" x1="18.2319" y1="4.70911" x2="38.4395" y2="15.9318" gradientUnits="userSpaceOnUse">
<stop stop-color="#0A51AB"/>
<stop offset="1" stop-color="#0D6ADF"/>
</linearGradient>
<linearGradient id="paint2_linear_4129_106040" x1="40.0442" y1="0.827586" x2="61.6341" y2="58.5566" gradientUnits="userSpaceOnUse">
<stop stop-color="#0A51AB"/>
<stop offset="1" stop-color="#0D6ADF"/>
</linearGradient>
</defs>
</svg>
